{
    "asset" : {
        "generator" : "Khronos glTF Blender I/O v1.6.16",
        "version" : "2.0"
    },
    "scene" : 0,
    "scenes" : [
        {
            "name" : "Scene",
            "nodes" : [
                0,
                1,
                2
            ]
        }
    ],
    "nodes" : [
        {
            "mesh" : 0,
            "name" : "Suzanne",
            "translation" : [
                0,
                0,
                -5
            ]
        },
        {
            "mesh" : 1,
            "name" : "Teapot",
            "rotation" : [
                0.0014532700879499316,
                0.004933678079396486,
                0.28255215287208557,
                0.9592381715774536
            ],
            "scale" : [
                0.39918282628059387,
                0.39918282628059387,
                0.39918282628059387
            ],
            "translation" : [
                -1.8552100658416748,
                0.18603120744228363,
                -3.6508898735046387
            ]
        },
        {
            "mesh" : 2,
            "name" : "Gear",
            "rotation" : [
                -0.4692060351371765,
                0.07038503885269165,
                0.037550780922174454,
                0.8794780373573303
            ],
            "translation" : [
                1.630271553993225,
                0,
                -3.2146201133728027
            ]
        }
    ],
    "materials" : [
        {
            "doubleSided" : true,
            "name" : "suzanne",
            "pbrMetallicRoughness" : {
                "baseColorFactor" : [
                    0.05726125091314316,
                    0.15779611468315125,
                    0.8000000715255737,
                    1
                ],
                "metallicFactor" : 0,
                "roughnessFactor" : 0.5
            }
        },
        {
            "doubleSided" : true,
            "name" : "teapot",
            "pbrMetallicRoughness" : {
                "baseColorFactor" : [
                    0.800000011920929,
                    0.800000011920929,
                    0.800000011920929,
                    1
                ],
                "metallicFactor" : 0,
                "roughnessFactor" : 0.5
            }
        },
        {
            "doubleSided" : true,
            "name" : "gear",
            "pbrMetallicRoughness" : {
                "baseColorFactor" : [
                    0.8000000715255737,
                    0.467475026845932,
                    0.15495479106903076,
                    1
                ],
                "metallicFactor" : 0,
                "roughnessFactor" : 0.5
            }
        }
    ],
    "meshes" : [
        {
            "name" : "Suzanne",
            "primitives" : [
                {
                    "attributes" : {
                        "POSITION" : 0,
                        "NORMAL" : 1,
                        "TEXCOORD_0" : 2
                    },
                    "indices" : 3,
                    "material" : 0
                }
            ]
        },
        {
            "name" : "Teapot",
            "primitives" : [
                {
                    "attributes" : {
                        "POSITION" : 4,
                        "NORMAL" : 5
                    },
                    "indices" : 6,
                    "material" : 1
                }
            ]
        },
        {
            "name" : "Gear",
            "primitives" : [
                {
                    "attributes" : {
                        "POSITION" : 7,
                        "NORMAL" : 8
                    },
                    "indices" : 9,
                    "material" : 2
                }
            ]
        }
    ],
    "accessors" : [
        {
            "bufferView" : 0,
            "componentType" : 5126,
            "count" : 1966,
            "max" : [
                1.3671875,
                0.984375,
                0.8515625
            ],
            "min" : [
                -1.3671875,
                -0.984375,
                -0.8515625
            ],
            "type" : "VEC3"
        },
        {
            "bufferView" : 1,
            "componentType" : 5126,
            "count" : 1966,
            "type" : "VEC3"
        },
        {
            "bufferView" : 2,
            "componentType" : 5126,
            "count" : 1966,
            "type" : "VEC2"
        },
        {
            "bufferView" : 3,
            "componentType" : 5123,
            "count" : 2904,
            "type" : "SCALAR"
        },
        {
            "bufferView" : 4,
            "componentType" : 5126,
            "count" : 821,
            "max" : [
                3.434000015258789,
                3.1500000953674316,
                2
            ],
            "min" : [
                -3,
                0,
                -2
            ],
            "type" : "VEC3"
        },
        {
            "bufferView" : 5,
            "componentType" : 5126,
            "count" : 821,
            "type" : "VEC3"
        },
        {
            "bufferView" : 6,
            "componentType" : 5123,
            "count" : 4680,
            "type" : "SCALAR"
        },
        {
            "bufferView" : 7,
            "componentType" : 5126,
            "count" : 1048,
            "max" : [
                1.0852446556091309,
                0.20000000298023224,
                1.0852446556091309
            ],
            "min" : [
                -1.0852446556091309,
                -0.20000000298023224,
                -1.0852446556091309
            ],
            "type" : "VEC3"
        },
        {
            "bufferView" : 8,
            "componentType" : 5126,
            "count" : 1048,
            "type" : "VEC3"
        },
        {
            "bufferView" : 9,
            "componentType" : 5123,
            "count" : 1728,
            "type" : "SCALAR"
        }
    ],
    "bufferViews" : [
        {
            "buffer" : 0,
            "byteLength" : 23592,
            "byteOffset" : 0
        },
        {
            "buffer" : 0,
            "byteLength" : 23592,
            "byteOffset" : 23592
        },
        {
            "buffer" : 0,
            "byteLength" : 15728,
            "byteOffset" : 47184
        },
        {
            "buffer" : 0,
            "byteLength" : 5808,
            "byteOffset" : 62912
        },
        {
            "buffer" : 0,
            "byteLength" : 9852,
            "byteOffset" : 68720
        },
        {
            "buffer" : 0,
            "byteLength" : 9852,
            "byteOffset" : 78572
        },
        {
            "buffer" : 0,
            "byteLength" : 9360,
            "byteOffset" : 88424
        },
        {
            "buffer" : 0,
            "byteLength" : 12576,
            "byteOffset" : 97784
        },
        {
            "buffer" : 0,
            "byteLength" : 12576,
            "byteOffset" : 110360
        },
        {
            "buffer" : 0,
            "byteLength" : 3456,
            "byteOffset" : 122936
        }
    ],
    "buffers" : [
        {
            "byteLength" : 126392,
            "uri" : "data:application/octet-stream;base64,"
        }
    ]
}
